<svg version="1.1" id="Layer_1" xmlns="http://www.w3.org/2000/svg" xmlns:xlink="http://www.w3.org/1999/xlink" x="0px" y="0px"
	 width="100%" viewBox="0 0 377 183" enable-background="new 0 0 377 183" xml:space="preserve">
<path fill="#FDFDFE" opacity="1.000000" stroke="none" 
	d="
M254.000000,184.000000 
	C169.333359,184.000000 85.166710,184.000000 1.000045,184.000000 
	C1.000030,123.000038 1.000030,62.000069 1.000015,1.000078 
	C126.666603,1.000052 252.333206,1.000052 377.999878,1.000026 
	C377.999908,61.999920 377.999908,122.999840 377.999939,183.999878 
	C336.833344,184.000000 295.666656,184.000000 254.000000,184.000000 
M354.339325,83.514359 
	C358.307587,65.673195 362.281616,47.833317 366.241760,29.990360 
	C368.378845,20.361494 364.318848,15.161328 354.637054,15.158631 
	C318.997955,15.148702 283.358856,15.151442 247.719742,15.166676 
	C246.345184,15.167263 244.970688,15.345363 242.890778,15.489697 
	C247.473511,21.529795 251.451004,27.058273 255.750839,32.323483 
	C258.037079,35.123005 258.719421,37.736256 257.902710,41.370892 
	C250.250931,75.424026 242.779831,109.517822 235.287918,143.606781 
	C233.628510,151.157227 232.093201,158.734940 230.523880,166.190201 
	C231.518768,166.549316 231.828415,166.758698 232.138306,166.759064 
	C262.613892,166.795868 293.089935,166.910339 323.564789,166.769836 
	C330.743652,166.736740 337.632477,160.501968 339.145691,153.625763 
	C342.574951,138.042908 345.897430,122.435272 349.513031,106.895805 
	C350.212708,103.888596 349.593536,102.333260 347.000916,100.858757 
	C343.340851,98.777145 339.897247,96.314972 335.953522,93.750473 
	C342.425262,90.249771 348.120636,87.169037 354.339325,83.514359 
M142.119781,54.649712 
	C134.097961,91.600388 126.076126,128.551071 118.034668,165.592163 
	C130.979385,165.592163 143.407822,165.592163 156.051468,165.592163 
	C161.374802,141.419922 166.657135,117.433876 172.180283,92.354294 
	C182.791916,122.309036 192.992905,151.104614 203.299759,180.199036 
	C209.780167,175.428101 215.804901,171.256866 221.485855,166.660706 
	C223.364212,165.141037 225.123260,162.697083 225.638809,160.386154 
	C233.545578,124.944092 240.648666,89.309647 249.297943,54.053410 
	C252.335220,41.672756 250.608383,32.733917 242.337708,23.044134 
	C236.847900,16.612362 231.904968,13.370309 223.680038,14.364550 
	C220.773239,14.715927 219.456116,15.129965 218.790329,18.350374 
	C214.945389,36.948421 210.771362,55.478432 206.505463,74.960045 
	C205.760010,72.842606 205.290848,71.625969 204.900757,70.384491 
	C199.475861,53.119385 194.001648,35.869297 188.703018,18.565462 
	C187.796265,15.604260 186.585373,14.359730 183.239441,14.400718 
	C166.912888,14.600719 150.582504,14.483850 134.253540,14.508628 
	C133.213791,14.510205 132.174438,14.761491 130.672668,14.956690 
	C132.522003,17.392525 133.742462,19.682415 135.565491,21.288216 
	C145.823074,30.323530 147.443039,41.098293 142.460480,53.350819 
	C142.397858,53.504856 142.353760,53.666428 142.119781,54.649712 
M109.489899,15.160962 
	C88.662979,15.160964 67.836067,15.158007 47.009148,15.165545 
	C44.923931,15.166299 42.751839,14.586458 42.076302,17.791403 
	C37.795994,38.098442 33.374535,58.375732 28.984249,78.734161 
	C30.779430,79.996658 32.399445,81.142509 34.026070,82.278900 
	C49.980839,93.425209 65.951286,104.549255 81.863754,115.755623 
	C83.096802,116.624001 84.940964,118.238960 84.775887,119.215233 
	C83.735703,125.367256 82.207535,131.436768 80.913635,137.207748 
	C71.580887,137.207748 62.973785,137.207748 54.006035,137.207748 
	C54.996452,132.844818 56.115734,128.855118 56.711155,124.788704 
	C56.923927,123.335579 56.360916,120.933594 55.316959,120.261215 
	C45.129345,113.699722 34.764763,107.412987 24.379755,101.004341 
	C24.098438,101.661499 23.828335,102.093468 23.725164,102.562180 
	C19.830587,120.255531 15.872795,137.935638 12.120461,155.659210 
	C11.065671,160.641327 16.304377,166.754395 21.771667,166.775726 
	C51.753269,166.892792 81.735565,166.831558 111.785439,166.831558 
	C112.195480,165.742661 112.664406,164.847839 112.871422,163.896042 
	C117.281723,143.618622 121.469910,123.289619 126.203636,103.088379 
	C127.211243,98.788429 125.983276,96.937149 122.739487,94.704536 
	C108.488083,84.895699 94.402733,74.845383 80.266762,64.869057 
	C71.008980,58.335464 70.948372,58.305206 74.141640,47.384636 
	C74.481621,46.221954 76.173218,44.674725 77.278664,44.640873 
	C85.057228,44.402687 92.846512,44.514507 101.218918,44.514507 
	C100.506042,47.924740 99.690804,50.768578 99.402939,53.664837 
	C99.267014,55.032440 99.686813,57.209206 100.628799,57.814182 
	C110.815002,64.356079 121.155304,70.658020 131.729858,77.196365 
	C133.681747,68.207054 134.850388,59.399124 137.587646,51.109131 
	C140.814682,41.335800 138.937515,34.019024 132.563568,25.788977 
	C126.474197,17.926380 120.559174,13.144558 109.489899,15.160962 
z"/>
<path fill="#6037B2" opacity="1.000000" stroke="none" 
	d="
M354.077637,83.801331 
	C348.120636,87.169037 342.425262,90.249771 335.953522,93.750473 
	C339.897247,96.314972 343.340851,98.777145 347.000916,100.858757 
	C349.593536,102.333260 350.212708,103.888596 349.513031,106.895805 
	C345.897430,122.435272 342.574951,138.042908 339.145691,153.625763 
	C337.632477,160.501968 330.743652,166.736740 323.564789,166.769836 
	C293.089935,166.910339 262.613892,166.795868 232.138306,166.759064 
	C231.828415,166.758698 231.518768,166.549316 230.523880,166.190201 
	C232.093201,158.734940 233.628510,151.157227 235.287918,143.606781 
	C242.779831,109.517822 250.250931,75.424026 257.902710,41.370892 
	C258.719421,37.736256 258.037079,35.123005 255.750839,32.323483 
	C251.451004,27.058273 247.473511,21.529795 242.890778,15.489697 
	C244.970688,15.345363 246.345184,15.167263 247.719742,15.166676 
	C283.358856,15.151442 318.997955,15.148702 354.637054,15.158631 
	C364.318848,15.161328 368.378845,20.361494 366.241760,29.990360 
	C362.281616,47.833317 358.307587,65.673195 354.077637,83.801331 
M290.742920,65.130638 
	C290.671112,70.948631 286.843384,73.969124 282.233612,76.246704 
	C279.125000,77.782616 278.241852,79.753181 279.698181,83.009048 
	C283.976410,92.573677 283.262909,102.177170 280.413055,112.070358 
	C278.051605,120.268097 276.729065,128.765121 274.901825,137.337982 
	C285.177032,137.337982 294.792816,137.337982 304.719269,137.337982 
	C306.950623,126.965469 309.145813,116.760933 311.526520,105.693977 
	C305.855133,108.390152 301.299713,110.555794 296.466949,112.853279 
	C293.454498,102.246788 290.652802,92.382324 287.780243,82.268410 
	C297.816559,76.482574 307.614777,70.895515 317.329590,65.167076 
	C318.782654,64.310265 320.554718,62.989407 320.960815,61.541496 
	C322.466370,56.173569 323.462128,50.662655 324.746674,44.758362 
	C314.519287,44.758362 304.965515,44.758362 295.086884,44.758362 
	C293.677612,51.346310 292.290649,57.830101 290.742920,65.130638 
z"/>
<path fill="#020202" opacity="1.000000" stroke="none" 
	d="
M142.210388,54.237095 
	C142.353760,53.666428 142.397858,53.504856 142.460480,53.350819 
	C147.443039,41.098293 145.823074,30.323530 135.565491,21.288216 
	C133.742462,19.682415 132.522003,17.392525 130.672668,14.956690 
	C132.174438,14.761491 133.213791,14.510205 134.253540,14.508628 
	C150.582504,14.483850 166.912888,14.600719 183.239441,14.400718 
	C186.585373,14.359730 187.796265,15.604260 188.703018,18.565462 
	C194.001648,35.869297 199.475861,53.119385 204.900757,70.384491 
	C205.290848,71.625969 205.760010,72.842606 206.505463,74.960045 
	C210.771362,55.478432 214.945389,36.948421 218.790329,18.350374 
	C219.456116,15.129965 220.773239,14.715927 223.680038,14.364550 
	C231.904968,13.370309 236.847900,16.612362 242.337708,23.044134 
	C250.608383,32.733917 252.335220,41.672756 249.297943,54.053410 
	C240.648666,89.309647 233.545578,124.944092 225.638809,160.386154 
	C225.123260,162.697083 223.364212,165.141037 221.485855,166.660706 
	C215.804901,171.256866 209.780167,175.428101 203.299759,180.199036 
	C192.992905,151.104614 182.791916,122.309036 172.180283,92.354294 
	C166.657135,117.433876 161.374802,141.419922 156.051468,165.592163 
	C143.407822,165.592163 130.979385,165.592163 118.034668,165.592163 
	C126.076126,128.551071 134.097961,91.600388 142.210388,54.237095 
z"/>
<path fill="#030303" opacity="1.000000" stroke="none" 
	d="
M109.986778,15.160963 
	C120.559174,13.144558 126.474197,17.926380 132.563568,25.788977 
	C138.937515,34.019024 140.814682,41.335800 137.587646,51.109131 
	C134.850388,59.399124 133.681747,68.207054 131.729858,77.196365 
	C121.155304,70.658020 110.815002,64.356079 100.628799,57.814182 
	C99.686813,57.209206 99.267014,55.032440 99.402939,53.664837 
	C99.690804,50.768578 100.506042,47.924740 101.218918,44.514507 
	C92.846512,44.514507 85.057228,44.402687 77.278664,44.640873 
	C76.173218,44.674725 74.481621,46.221954 74.141640,47.384636 
	C70.948372,58.305206 71.008980,58.335464 80.266762,64.869057 
	C94.402733,74.845383 108.488083,84.895699 122.739487,94.704536 
	C125.983276,96.937149 127.211243,98.788429 126.203636,103.088379 
	C121.469910,123.289619 117.281723,143.618622 112.871422,163.896042 
	C112.664406,164.847839 112.195480,165.742661 111.785439,166.831558 
	C81.735565,166.831558 51.753269,166.892792 21.771667,166.775726 
	C16.304377,166.754395 11.065671,160.641327 12.120461,155.659210 
	C15.872795,137.935638 19.830587,120.255531 23.725164,102.562180 
	C23.828335,102.093468 24.098438,101.661499 24.379755,101.004341 
	C34.764763,107.412987 45.129345,113.699722 55.316959,120.261215 
	C56.360916,120.933594 56.923927,123.335579 56.711155,124.788704 
	C56.115734,128.855118 54.996452,132.844818 54.006035,137.207748 
	C62.973785,137.207748 71.580887,137.207748 80.913635,137.207748 
	C82.207535,131.436768 83.735703,125.367256 84.775887,119.215233 
	C84.940964,118.238960 83.096802,116.624001 81.863754,115.755623 
	C65.951286,104.549255 49.980839,93.425209 34.026070,82.278900 
	C32.399445,81.142509 30.779430,79.996658 28.984249,78.734161 
	C33.374535,58.375732 37.795994,38.098442 42.076302,17.791403 
	C42.751839,14.586458 44.923931,15.166299 47.009148,15.165545 
	C67.836067,15.158007 88.662979,15.160964 109.986778,15.160963 
z"/>
<path fill="#FDFCFE" opacity="1.000000" stroke="none" 
	d="
M290.823303,64.722260 
	C292.290649,57.830101 293.677612,51.346310 295.086884,44.758362 
	C304.965515,44.758362 314.519287,44.758362 324.746674,44.758362 
	C323.462128,50.662655 322.466370,56.173569 320.960815,61.541496 
	C320.554718,62.989407 318.782654,64.310265 317.329590,65.167076 
	C307.614777,70.895515 297.816559,76.482574 287.780243,82.268410 
	C290.652802,92.382324 293.454498,102.246788 296.466949,112.853279 
	C301.299713,110.555794 305.855133,108.390152 311.526520,105.693977 
	C309.145813,116.760933 306.950623,126.965469 304.719269,137.337982 
	C294.792816,137.337982 285.177032,137.337982 274.901825,137.337982 
	C276.729065,128.765121 278.051605,120.268097 280.413055,112.070358 
	C283.262909,102.177170 283.976410,92.573677 279.698181,83.009048 
	C278.241852,79.753181 279.125000,77.782616 282.233612,76.246704 
	C286.843384,73.969124 290.671112,70.948631 290.823303,64.722260 
z"/>
</svg>